<svg xmlns="http://www.w3.org/2000/svg" xmlns:xlink="http://www.w3.org/1999/xlink" xml:lang="en" height="159.8pt" width="395.528pt" viewBox="-34.588 -148.20000000000002 395.528 159.8"><defs><marker id="cyarrow0" viewBox="0 0 10 10" refX="9" refY="5" markerWidth="7" markerHeight="7" orient="auto-start-reverse"><path d="M 0 0 L 10 5 L 0 10 z" fill="#d33"/></marker><marker id="cyarrow1" viewBox="0 0 10 10" refX="9" refY="5" markerWidth="7" markerHeight="7" orient="auto-start-reverse"><path d="M 0 0 L 10 5 L 0 10 z" fill="#36c"/></marker><marker id="cyarrow2" viewBox="0 0 10 10" refX="9" refY="5" markerWidth="7" markerHeight="7" orient="auto-start-reverse"><path d="M 0 0 L 10 5 L 0 10 z" fill="#2a8"/></marker><marker id="cyarrow3" viewBox="0 0 10 10" refX="9" refY="5" markerWidth="7" markerHeight="7" orient="auto-start-reverse"><path d="M 0 0 L 10 5 L 0 10 z" fill="#c80"/></marker><marker id="cyarrow4" viewBox="0 0 10 10" refX="9" refY="5" markerWidth="7" markerHeight="7" orient="auto-start-reverse"><path d="M 0 0 L 10 5 L 0 10 z" fill="#86c"/></marker><marker id="cyarrow5" viewBox="0 0 10 10" refX="9" refY="5" markerWidth="7" markerHeight="7" orient="auto-start-reverse"><path d="M 0 0 L 10 5 L 0 10 z" fill="#a44"/></marker></defs><line class="cyc cyc0" x1="105.5" y1="-14.0" x2="105.5" y2="-94.0" stroke="#d33" stroke-width="3" stroke-opacity="0.6" marker-end="url(#cyarrow0)" /><line class="cyc cyc0" x1="122.0" y1="-108.0" x2="202.0" y2="-108.0" stroke="#d33" stroke-width="3" stroke-opacity="0.6" marker-end="url(#cyarrow0)" /><line class="cyc cyc0" x1="218.5" y1="-94.0" x2="218.5" y2="-14.0" stroke="#d33" stroke-width="3" stroke-opacity="0.6" marker-end="url(#cyarrow0)" /><line class="cyc cyc0" x1="202.0" y1="0.0" x2="122.0" y2="0.0" stroke="#d33" stroke-width="3" stroke-opacity="0.6" marker-end="url(#cyarrow0)" /><line class="cyc cyc1" x1="110.5" y1="-14.0" x2="110.5" y2="-94.0" stroke="#36c" stroke-width="3" stroke-opacity="0.6" marker-end="url(#cyarrow1)" /><line class="cyc cyc1" x1="94.0" y1="-108.0" x2="14.0" y2="-108.0" stroke="#36c" stroke-width="3" stroke-opacity="0.6" marker-end="url(#cyarrow1)" /><line class="cyc cyc1" x1="0.0" y1="-94.0" x2="0.0" y2="-14.0" stroke="#36c" stroke-width="3" stroke-opacity="0.6" marker-end="url(#cyarrow1)" /><line class="cyc cyc1" x1="14.0" y1="0.0" x2="94.0" y2="0.0" stroke="#36c" stroke-width="3" stroke-opacity="0.6" marker-end="url(#cyarrow1)" /><line class="cyc cyc2" x1="213.5" y1="-94.0" x2="213.5" y2="-14.0" stroke="#2a8" stroke-width="3" stroke-opacity="0.6" marker-end="url(#cyarrow2)" /><line class="cyc cyc2" x1="324.0" y1="-14.0" x2="324.0" y2="-94.0" stroke="#2a8" stroke-width="3" stroke-opacity="0.6" marker-end="url(#cyarrow2)" /><line class="cyc cyc2" x1="310.0" y1="-108.0" x2="230.0" y2="-108.0" stroke="#2a8" stroke-width="3" stroke-opacity="0.6" marker-end="url(#cyarrow2)" /><line class="cyc cyc2" x1="230.0" y1="0.0" x2="310.0" y2="0.0" stroke="#2a8" stroke-width="3" stroke-opacity="0.6" marker-end="url(#cyarrow2)" /><circle cx="54.0" cy="-108.0" r="18.0" style="stroke:black;fill:none;stroke-width:2.0;stroke-dasharray:-;" /><circle cx="270.0" cy="-108.0" r="18.0" style="stroke:black;fill:none;stroke-width:2.0;stroke-dasharray:-;" /><path d="M 0.0,-0.0 L 54.0,-0.0 L 108.0,-0.0" style="stroke:black;fill:none;stroke-width:2.0;stroke-dasharray:-;stroke-linecap:round;stroke-linejoin:round;" /><path d="M 108.0,-0.0 L 162.0,-0.0 L 216.0,-0.0" style="stroke:black;fill:none;stroke-width:2.0;stroke-dasharray:-;stroke-linecap:round;stroke-linejoin:round;" /><path d="M 216.0,-0.0 L 270.0,-0.0 L 324.0,-0.0" style="stroke:black;fill:none;stroke-width:2.0;stroke-dasharray:-;stroke-linecap:round;stroke-linejoin:round;" /><path d="M 0.0,-108.0 L 36.0,-108.0 L 36.0,-108.0 M 72.0,-108.0 L 72.0,-108.0 L 108.0,-108.0" style="stroke:black;fill:none;stroke-width:2.0;stroke-dasharray:-;stroke-linecap:round;stroke-linejoin:round;" /><path d="M 45.0,-104.39999999999999 L 45.0,-111.60000000000001" style="stroke:black;fill:none;stroke-width:2.0;stroke-dasharray:-;stroke-linecap:round;stroke-linejoin:round;" /><path d="M 59.4,-108.0 L 66.60000000000001,-108.0" style="stroke:black;fill:none;stroke-width:2.0;stroke-dasharray:-;stroke-linecap:round;stroke-linejoin:round;" /><path d="M 63.0,-104.39999999999999 L 63.0,-111.60000000000001" style="stroke:black;fill:none;stroke-width:2.0;stroke-dasharray:-;stroke-linecap:round;stroke-linejoin:round;" /><path d="M 324.0,-108.0 L 288.0,-108.0 L 288.0,-108.0 M 252.0,-108.00000000000001 L 252.0,-108.00000000000001 L 216.0,-108.00000000000001" style="stroke:black;fill:none;stroke-width:2.0;stroke-dasharray:-;stroke-linecap:round;stroke-linejoin:round;" /><path d="M 279.0,-111.60000000000001 L 279.0,-104.4" style="stroke:black;fill:none;stroke-width:2.0;stroke-dasharray:-;stroke-linecap:round;stroke-linejoin:round;" /><path d="M 264.59999999999997,-108.0 L 257.40000000000003,-108.00000000000001" style="stroke:black;fill:none;stroke-width:2.0;stroke-dasharray:-;stroke-linecap:round;stroke-linejoin:round;" /><path d="M 261.0,-111.60000000000001 L 261.0,-104.4" style="stroke:black;fill:none;stroke-width:2.0;stroke-dasharray:-;stroke-linecap:round;stroke-linejoin:round;" /><path d="M 0.0,-108.0 L 2.204364238465236e-15,-72.0 L 9.000000000000002,-69.0 L -8.999999999999996,-63.0 L 9.000000000000004,-57.00000000000001 L -8.999999999999996,-51.0 L 9.000000000000004,-45.0 L -8.999999999999996,-39.00000000000001 L 4.408728476930472e-15,-36.0 L 6.613092715395707e-15,-0.0" style="stroke:black;fill:none;stroke-width:2.0;stroke-dasharray:-;stroke-linecap:round;stroke-linejoin:round;" /><path d="M 108.0,-108.0 L 108.0,-72.0 L 117.0,-69.0 L 99.0,-63.0 L 117.0,-57.00000000000001 L 99.0,-51.0 L 117.0,-45.0 L 99.0,-39.00000000000001 L 108.0,-36.0 L 108.0,-0.0" style="stroke:black;fill:none;stroke-width:2.0;stroke-dasharray:-;stroke-linecap:round;stroke-linejoin:round;" /><path d="M 108.0,-108.0 L 144.0,-108.0 L 147.0,-117.0 L 153.0,-99.0 L 158.99999999999997,-117.0 L 165.0,-99.0 L 171.0,-117.0 L 176.99999999999997,-99.0 L 180.0,-108.0 L 216.0,-108.0" style="stroke:black;fill:none;stroke-width:2.0;stroke-dasharray:-;stroke-linecap:round;stroke-linejoin:round;" /><path d="M 216.0,-108.0 L 216.0,-72.0 L 225.0,-69.0 L 207.0,-63.0 L 225.0,-57.00000000000001 L 207.0,-51.0 L 225.0,-45.0 L 207.0,-39.00000000000001 L 216.0,-36.0 L 216.0,-0.0" style="stroke:black;fill:none;stroke-width:2.0;stroke-dasharray:-;stroke-linecap:round;stroke-linejoin:round;" /><path d="M 324.0,-108.0 L 324.0,-72.0 L 333.0,-69.0 L 315.0,-63.0 L 333.0,-57.00000000000001 L 315.0,-51.0 L 333.0,-45.0 L 315.0,-39.00000000000001 L 324.0,-36.0 L 324.0,-0.0" style="stroke:black;fill:none;stroke-width:2.0;stroke-dasharray:-;stroke-linecap:round;stroke-linejoin:round;" /><text x="54.0" y="-143.6" dominant-baseline="ideographic" fill="black" font-size="14.0" font-family="sans" text-anchor="middle"><tspan x="54.0" dy="14.0">V1</tspan></text><text x="54.0" y="-100.39999999999999" dominant-baseline="hanging" fill="black" font-size="14.0" font-family="sans" text-anchor="middle"><tspan x="54.0" dy="14.0">30 V</tspan></text><text x="270.0" y="-143.6" dominant-baseline="ideographic" fill="black" font-size="14.0" font-family="sans" text-anchor="middle"><tspan x="270.0" dy="14.0">V2</tspan></text><text x="270.0" y="-100.4" dominant-baseline="hanging" fill="black" font-size="14.0" font-family="sans" text-anchor="middle"><tspan x="270.0" dy="14.0">40 V</tspan></text><text x="-12.599999999999994" y="-68.0" dominant-baseline="central" fill="black" font-size="14.0" font-family="sans" text-anchor="end"><tspan x="-12.599999999999994" dy="14.0">R1</tspan></text><text x="12.600000000000003" y="-68.0" dominant-baseline="central" fill="black" font-size="14.0" font-family="sans" text-anchor="start"><tspan x="12.600000000000003" dy="14.0">4Ω</tspan></text><text x="95.4" y="-68.0" dominant-baseline="central" fill="black" font-size="14.0" font-family="sans" text-anchor="end"><tspan x="95.4" dy="14.0">R2</tspan></text><text x="120.60000000000001" y="-68.0" dominant-baseline="central" fill="black" font-size="14.0" font-family="sans" text-anchor="start"><tspan x="120.60000000000001" dy="14.0">10Ω</tspan></text><text x="162.0" y="-134.60000000000002" dominant-baseline="ideographic" fill="black" font-size="14.0" font-family="sans" text-anchor="middle"><tspan x="162.0" dy="14.0">R3</tspan></text><text x="162.0" y="-109.39999999999999" dominant-baseline="hanging" fill="black" font-size="14.0" font-family="sans" text-anchor="middle"><tspan x="162.0" dy="14.0">30Ω</tspan></text><text x="203.4" y="-68.0" dominant-baseline="central" fill="black" font-size="14.0" font-family="sans" text-anchor="end"><tspan x="203.4" dy="14.0">R4</tspan></text><text x="228.6" y="-68.0" dominant-baseline="central" fill="black" font-size="14.0" font-family="sans" text-anchor="start"><tspan x="228.6" dy="14.0">10Ω</tspan></text><text x="311.40000000000003" y="-68.0" dominant-baseline="central" fill="black" font-size="14.0" font-family="sans" text-anchor="end"><tspan x="311.40000000000003" dy="14.0">R5</tspan></text><text x="336.59999999999997" y="-68.0" dominant-baseline="central" fill="black" font-size="14.0" font-family="sans" text-anchor="start"><tspan x="336.59999999999997" dy="14.0">4Ω</tspan></text><circle cx="0.0" cy="-108.0" r="2.6999999999999997" style="stroke:black;fill:black;stroke-width:2.0;stroke-dasharray:-;" /><text x="-6.3" y="-122.0" dominant-baseline="central" fill="green" font-size="14.0" font-family="sans" text-anchor="end"><tspan x="-6.3" dy="14.0">4</tspan></text><circle cx="108.0" cy="-108.0" r="2.6999999999999997" style="stroke:black;fill:black;stroke-width:2.0;stroke-dasharray:-;" /><text x="101.7" y="-122.0" dominant-baseline="central" fill="green" font-size="14.0" font-family="sans" text-anchor="end"><tspan x="101.7" dy="14.0">1</tspan></text><circle cx="216.0" cy="-108.0" r="2.6999999999999997" style="stroke:black;fill:black;stroke-width:2.0;stroke-dasharray:-;" /><text x="209.70000000000002" y="-122.0" dominant-baseline="central" fill="green" font-size="14.0" font-family="sans" text-anchor="end"><tspan x="209.70000000000002" dy="14.0">3</tspan></text><circle cx="324.0" cy="-108.0" r="2.6999999999999997" style="stroke:black;fill:black;stroke-width:2.0;stroke-dasharray:-;" /><text x="317.7" y="-122.0" dominant-baseline="central" fill="green" font-size="14.0" font-family="sans" text-anchor="end"><tspan x="317.7" dy="14.0">5</tspan></text><circle cx="162.0" cy="-0.0" r="2.6999999999999997" style="stroke:black;fill:black;stroke-width:2.0;stroke-dasharray:-;" /><text x="155.70000000000002" y="-14.0" dominant-baseline="central" fill="green" font-size="14.0" font-family="sans" text-anchor="end"><tspan x="155.70000000000002" dy="14.0">2</tspan></text><text class="cyc cyc0" x="162.0" y="-67.0" text-anchor="middle" font-family="serif" font-style="italic" font-size="18" font-weight="bold" fill="#d33" stroke="white" stroke-width="3" paint-order="stroke">i<tspan dy="4" font-size="13">1</tspan></text><text class="cyc cyc1" x="90.0" y="-67.0" text-anchor="middle" font-family="serif" font-style="italic" font-size="18" font-weight="bold" fill="#36c" stroke="white" stroke-width="3" paint-order="stroke">i<tspan dy="4" font-size="13">2</tspan></text><text class="cyc cyc2" x="234.0" y="-67.0" text-anchor="middle" font-family="serif" font-style="italic" font-size="18" font-weight="bold" fill="#2a8" stroke="white" stroke-width="3" paint-order="stroke">i<tspan dy="4" font-size="13">3</tspan></text></svg>